<svg width="32" height="32" viewBox="0 0 32 32" fill="none" xmlns="http://www.w3.org/2000/svg">
<g clip-path="url(#clip0_49_160)">
<g filter="url(#filter0_d_49_160)">
<path d="M30 10.8571L16.5 4C10.9377 6.8253 10.9377 14.889 16.5 17.7143L30 10.8571ZM16.5 6.27545L25.5202 10.8571L16.5 8.19825L7.4798 10.8571L16.5 6.27545ZM27.2972 14.6244C28.4111 15.1907 28.4109 16.8058 27.2967 17.3717L16.5 22.8557L3 15.9986L5.70275 14.6244L16.5 20.1101L27.2972 14.6244ZM27.2972 19.7686L30 21.1429L16.5 28L3 21.1429C4.70136 20.2778 6.70441 20.2772 8.4062 21.1415L16.5 25.2515L27.2972 19.7686Z" fill="white"/>
</g>
</g>
<defs>
<filter id="filter0_d_49_160" x="-1" y="4" width="35" height="32" filterUnits="userSpaceOnUse" color-interpolation-filters="sRGB">
<feFlood flood-opacity="0" result="BackgroundImageFix"/>
<feColorMatrix in="SourceAlpha" type="matrix" values="0 0 0 0 0 0 0 0 0 0 0 0 0 0 0 0 0 0 127 0" result="hardAlpha"/>
<feOffset dy="4"/>
<feGaussianBlur stdDeviation="2"/>
<feComposite in2="hardAlpha" operator="out"/>
<feColorMatrix type="matrix" values="0 0 0 0 0 0 0 0 0 0 0 0 0 0 0 0 0 0 0.25 0"/>
<feBlend mode="normal" in2="BackgroundImageFix" result="effect1_dropShadow_49_160"/>
<feBlend mode="normal" in="SourceGraphic" in2="effect1_dropShadow_49_160" result="shape"/>
</filter>
<clipPath id="clip0_49_160">
<rect width="32" height="32" fill="white"/>
</clipPath>
</defs>
</svg>
