<svg width="36" height="36" viewBox="0 0 36 36" fill="none" xmlns="http://www.w3.org/2000/svg">
<path fill-rule="evenodd" clip-rule="evenodd" d="M14.7587 7H21.2413C22.0463 6.99999 22.7106 6.99998 23.2518 7.04419C23.8139 7.09012 24.3306 7.18868 24.816 7.43597C25.5686 7.81947 26.1805 8.43139 26.564 9.18404C26.8113 9.66937 26.9099 10.1861 26.9558 10.7482C27 11.2894 27 11.9537 27 12.7587V23.2413C27 24.0463 27 24.7106 26.9558 25.2518C26.9099 25.8139 26.8113 26.3306 26.564 26.816C26.1805 27.5686 25.5686 28.1805 24.816 28.564C24.3306 28.8113 23.8139 28.9099 23.2518 28.9558C22.7106 29 22.0463 29 21.2413 29H14.7587C13.9537 29 13.2894 29 12.7482 28.9558C12.1861 28.9099 11.6694 28.8113 11.184 28.564C10.4314 28.1805 9.81947 27.5686 9.43597 26.816C9.18868 26.3306 9.09012 25.8139 9.04419 25.2518C8.99998 24.7106 8.99999 24.0463 9 23.2413V12.7587C8.99999 11.9537 8.99998 11.2894 9.04419 10.7482C9.09012 10.1861 9.18868 9.66937 9.43597 9.18404C9.81947 8.43139 10.4314 7.81947 11.184 7.43597C11.6694 7.18868 12.1861 7.09012 12.7482 7.04419C13.2894 6.99998 13.9537 6.99999 14.7587 7ZM12.911 9.03755C12.4726 9.07337 12.2484 9.1383 12.092 9.21799C11.7157 9.40973 11.4097 9.7157 11.218 10.092C11.1383 10.2484 11.0734 10.4726 11.0376 10.911C11.0008 11.3611 11 11.9434 11 12.8V23.2C11 24.0566 11.0008 24.6389 11.0376 25.089C11.0734 25.5274 11.1383 25.7516 11.218 25.908C11.4097 26.2843 11.7157 26.5903 12.092 26.782C12.2484 26.8617 12.4726 26.9266 12.911 26.9624C13.3611 26.9992 13.9434 27 14.8 27H21.2C22.0566 27 22.6389 26.9992 23.089 26.9624C23.5274 26.9266 23.7516 26.8617 23.908 26.782C24.2843 26.5903 24.5903 26.2843 24.782 25.908C24.8617 25.7516 24.9266 25.5274 24.9624 25.089C24.9992 24.6389 25 24.0566 25 23.2V12.8C25 11.9434 24.9992 11.3611 24.9624 10.911C24.9266 10.4726 24.8617 10.2484 24.782 10.092C24.5903 9.7157 24.2843 9.40973 23.908 9.21799C23.7516 9.1383 23.5274 9.07337 23.089 9.03755C22.6389 9.00078 22.0566 9 21.2 9H14.8C13.9434 9 13.3611 9.00078 12.911 9.03755ZM13 13C13 12.4477 13.4477 12 14 12H22C22.5523 12 23 12.4477 23 13C23 13.5523 22.5523 14 22 14H14C13.4477 14 13 13.5523 13 13ZM13 17C13 16.4477 13.4477 16 14 16H20C20.5523 16 21 16.4477 21 17C21 17.5523 20.5523 18 20 18H14C13.4477 18 13 17.5523 13 17ZM13 21C13 20.4477 13.4477 20 14 20H16C16.5523 20 17 20.4477 17 21C17 21.5523 16.5523 22 16 22H14C13.4477 22 13 21.5523 13 21Z" fill="#0071FF"/>
</svg>
