<svg width="32" height="32" viewBox="0 0 32 32" fill="none" xmlns="http://www.w3.org/2000/svg">
<path d="M7.36 3.52008L5.28 6.29341C4.86802 6.84272 4.66203 7.11737 4.66681 7.34727C4.67097 7.54733 4.76478 7.73495 4.92233 7.85832C5.10339 8.00008 5.4467 8.00008 6.13333 8.00008H25.8667C26.5533 8.00008 26.8966 8.00008 27.0777 7.85832C27.2352 7.73495 27.329 7.54733 27.3332 7.34727C27.338 7.11737 27.132 6.84272 26.72 6.29341L24.64 3.52008M7.36 3.52008C7.59467 3.20719 7.712 3.05075 7.8607 2.93792C7.9924 2.83798 8.14154 2.76341 8.30051 2.71801C8.48 2.66675 8.67556 2.66675 9.06667 2.66675H22.9333C23.3244 2.66675 23.52 2.66675 23.6995 2.71801C23.8585 2.76341 24.0076 2.83798 24.1393 2.93792C24.288 3.05075 24.4053 3.20719 24.64 3.52008M7.36 3.52008L4.85333 6.8623C4.53672 7.28445 4.37841 7.49553 4.266 7.72798C4.16625 7.93424 4.09349 8.1525 4.04954 8.37736C4 8.63076 4 8.89461 4 9.4223L4 25.0667C4 26.5602 4 27.307 4.29065 27.8774C4.54631 28.3792 4.95426 28.7871 5.45603 29.0428C6.02646 29.3334 6.77319 29.3334 8.26667 29.3334L23.7333 29.3334C25.2268 29.3334 25.9735 29.3334 26.544 29.0428C27.0457 28.7871 27.4537 28.3792 27.7094 27.8774C28 27.307 28 26.5602 28 25.0667V9.4223C28 8.89461 28 8.63077 27.9505 8.37736C27.9065 8.1525 27.8338 7.93424 27.734 7.72798C27.6216 7.49553 27.4633 7.28446 27.1467 6.8623L24.64 3.52008M21.3333 13.3334C21.3333 14.7479 20.7714 16.1045 19.7712 17.1046C18.771 18.1048 17.4145 18.6667 16 18.6667C14.5855 18.6667 13.229 18.1048 12.2288 17.1046C11.2286 16.1045 10.6667 14.7479 10.6667 13.3334" stroke="#0071FF" stroke-width="2" stroke-linecap="round" stroke-linejoin="round"/>
</svg>
