<svg width="16" height="16" viewBox="0 0 16 16" fill="none" xmlns="http://www.w3.org/2000/svg">
<path fill-rule="evenodd" clip-rule="evenodd" d="M3.52925 3.52827C3.7896 3.26792 4.21171 3.26792 4.47206 3.52827L8.00065 7.05687L11.5292 3.52827C11.7896 3.26792 12.2117 3.26792 12.4721 3.52827C12.7324 3.78862 12.7324 4.21073 12.4721 4.47108L8.94346 7.99967L12.4721 11.5283C12.7324 11.7886 12.7324 12.2107 12.4721 12.4711C12.2117 12.7314 11.7896 12.7314 11.5292 12.4711L8.00065 8.94248L4.47206 12.4711C4.21171 12.7314 3.7896 12.7314 3.52925 12.4711C3.2689 12.2107 3.2689 11.7886 3.52925 11.5283L7.05784 7.99967L3.52925 4.47108C3.2689 4.21073 3.2689 3.78862 3.52925 3.52827Z" fill="#A4ABB8"/>
</svg>
