<svg viewBox="0 0 72 72" fill="none" xmlns="http://www.w3.org/2000/svg">
<g clip-path="url(#clip0_629_2352)">
<path opacity="0.6" d="M25.3184 65.9715L35.9784 72.0007L46.6385 65.9715L35.9784 59.9812L25.3184 65.9715Z" fill="#0071FF"/>
<path opacity="0.6" d="M4 53.9905L14.66 59.9808L25.32 53.9905L14.66 48.0002L4 53.9905Z" fill="#0071FF"/>
<path opacity="0.6" d="M57.2988 59.9808L67.9987 53.9905L57.2988 48.0002L46.6387 53.9905L57.2988 59.9808Z" fill="#0071FF"/>
<path opacity="0.5" d="M57.2988 48.0007L67.9987 41.9715L57.2988 35.9812L46.6387 41.9715L57.2988 48.0007Z" fill="#0071FF"/>
<path d="M46.6384 41.9715L35.9784 35.9812L25.3184 41.9715L35.9784 48.0007L25.3184 53.991L35.9784 59.9813L46.6384 53.991L35.9784 48.0007L46.6384 41.9715Z" fill="#0071FF"/>
<path opacity="0.5" d="M14.66 35.9812L4 41.9715L14.66 48.0007L25.32 41.9715L14.66 35.9812Z" fill="#0071FF"/>
<path opacity="0.4" d="M14.66 23.9998L4 29.9901L14.66 35.9804L25.32 29.9901L14.66 23.9998Z" fill="#0071FF"/>
<path opacity="0.6" d="M25.3184 29.9901L35.9784 35.9804L46.6385 29.9901L35.9784 23.9998L25.3184 29.9901Z" fill="#0071FF"/>
<path opacity="0.4" d="M46.6387 29.9901L57.2988 35.9804L67.9987 29.9901L57.2988 23.9998L46.6387 29.9901Z" fill="#0071FF"/>
<path opacity="0.3" d="M67.9987 17.9715L57.2988 11.9812L46.6387 17.9715L57.2988 24.0007L67.9987 17.9715Z" fill="#0071FF"/>
<path opacity="0.2" d="M46.6384 17.9712L35.9784 11.9809L46.6384 5.99055L35.9784 0.000244141L25.3184 5.99055L35.9784 11.9809L25.3184 17.9712L35.9784 24.0004L46.6384 17.9712Z" fill="#0071FF"/>
<path opacity="0.3" d="M14.66 11.9812L4 17.9715L14.66 24.0007L25.32 17.9715L14.66 11.9812Z" fill="#0071FF"/>
</g>
<defs>
<clipPath id="clip0_629_2352">
<rect width="72" height="72" fill="white"/>
</clipPath>
</defs>
</svg>
