<svg viewBox="0 0 72 72" fill="none" xmlns="http://www.w3.org/2000/svg">
<path d="M46.6524 30.5462L35.9991 24.6416L25.3457 30.5462V42.3936L35.9991 48.2981L46.6524 42.3936V30.5462Z" fill="#0071FF"/>
<path opacity="0.4" d="M57.3068 24.6416V36.4508V48.2981L46.6534 54.2027L36 60.1073L46.6534 66.0502L57.3068 60.1073L68 54.2027V42.3936V30.5462L57.3068 24.6416Z" fill="#0071FF"/>
<path opacity="0.2" d="M36.0001 12.7942L46.6535 18.7371L57.3069 24.6417V12.7942L46.6535 6.88966L36.0001 0.985107L25.3468 6.88966L14.6934 12.7942V24.6417L25.3468 18.7371L36.0001 12.7942Z" fill="#0071FF"/>
<path opacity="0.6" d="M14.6933 48.2981V36.4507V24.6416L4.03989 30.5462H4V42.3936V54.2027L14.6933 60.1073L25.3466 66.0502V66.0118L36 60.1073L25.3466 54.2027L14.6933 48.2981Z" fill="#0071FF"/>
</svg>
