<svg viewBox="0 0 72 72" fill="none" xmlns="http://www.w3.org/2000/svg">
<g clip-path="url(#clip0_673_2223)">
<path opacity="0.8" d="M14.66 36.0181L4 42.0083V53.9888L14.66 60.018L25.32 53.9888L14.66 47.9986V36.0181Z" fill="#0071FF"/>
<path opacity="0.6" d="M25.3203 53.9902V66.0096L35.9803 71.9998L46.6802 66.0096V53.9902L35.9803 60.0193L25.3203 53.9902Z" fill="#0071FF"/>
<path opacity="0.4" d="M57.3397 47.9986L46.6797 53.9888L57.3397 60.018L67.9997 53.9888V42.0083L57.3397 36.0181V47.9986Z" fill="#0071FF"/>
<path opacity="0.3" d="M57.3397 12.02L46.6797 18.0102L57.3397 24.0005V36.0199L67.9997 29.9907V18.0102L57.3397 12.02Z" fill="#0071FF"/>
<path opacity="0.2" d="M36.0202 12.0189L46.6802 18.0091V5.98976L35.9803 -0.000488281L25.3203 5.98976V18.0091L35.9803 12.0189H36.0202Z" fill="#0071FF"/>
<path d="M25.32 18.0102L14.66 12.02L4 18.0102V29.9907L14.66 36.0199V24.0005L25.32 18.0102Z" fill="#0071FF"/>
</g>
<defs>
<clipPath id="clip0_673_2223">
<rect width="72" height="72" fill="white"/>
</clipPath>
</defs>
</svg>
