<svg viewBox="0 0 72 72" fill="none" xmlns="http://www.w3.org/2000/svg">
<g clip-path="url(#clip0_673_2230)">
<path opacity="0.6" d="M25.3184 65.9717L35.9784 72.0009L46.6385 65.9717L35.9784 59.9814L25.3184 65.9717Z" fill="#0071FF"/>
<path opacity="0.6" d="M4 53.9903L14.66 59.9806L25.32 53.9903L14.66 48L4 53.9903Z" fill="#0071FF"/>
<path opacity="0.6" d="M57.2988 59.9806L67.9987 53.9903L57.2988 48L46.6387 53.9903L57.2988 59.9806Z" fill="#0071FF"/>
<path opacity="0.5" d="M57.2988 48.0009L67.9987 41.9717L57.2988 35.9814L46.6387 41.9717L57.2988 48.0009Z" fill="#0071FF"/>
<path d="M46.6384 41.9717L35.9784 35.9814L25.3184 41.9717L35.9784 48.0009L25.3184 53.9912L35.9784 59.9815L46.6384 53.9912L35.9784 48.0009L46.6384 41.9717Z" fill="#0071FF"/>
<path opacity="0.5" d="M14.66 35.9814L4 41.9717L14.66 48.0009L25.32 41.9717L14.66 35.9814Z" fill="#0071FF"/>
<path opacity="0.4" d="M14.66 23.9995L4 29.9898L14.66 35.9801L25.32 29.9898L14.66 23.9995Z" fill="#0071FF"/>
<path opacity="0.6" d="M25.3184 29.9898L35.9784 35.9801L46.6385 29.9898L35.9784 23.9995L25.3184 29.9898Z" fill="#0071FF"/>
<path opacity="0.4" d="M46.6387 29.9898L57.2988 35.9801L67.9987 29.9898L57.2988 23.9995L46.6387 29.9898Z" fill="#0071FF"/>
<path opacity="0.3" d="M67.9987 17.9717L57.2988 11.9814L46.6387 17.9717L57.2988 24.0009L67.9987 17.9717Z" fill="#0071FF"/>
<path opacity="0.2" d="M46.6384 17.9709L35.9784 11.9806L46.6384 5.99031L35.9784 0L25.3184 5.99031L35.9784 11.9806L25.3184 17.9709L35.9784 24.0001L46.6384 17.9709Z" fill="#0071FF"/>
<path opacity="0.3" d="M14.66 11.9814L4 17.9717L14.66 24.0009L25.32 17.9717L14.66 11.9814Z" fill="#0071FF"/>
</g>
<defs>
<clipPath id="clip0_673_2230">
<rect width="72" height="72" fill="white"/>
</clipPath>
</defs>
</svg>
