<svg width="32" height="32" viewBox="0 0 32 32" fill="#0071FF" xmlns="http://www.w3.org/2000/svg">
<path fill-rule="evenodd" clip-rule="evenodd" d="M6 10.0476C6 9.46904 6.44772 9 7 9H25C25.5523 9 26 9.46904 26 10.0476C26 10.6262 25.5523 11.0952 25 11.0952H7C6.44772 11.0952 6 10.6262 6 10.0476ZM6 16.3333C6 15.7547 6.44772 15.2857 7 15.2857H25C25.5523 15.2857 26 15.7547 26 16.3333C26 16.9119 25.5523 17.381 25 17.381H7C6.44772 17.381 6 16.9119 6 16.3333ZM12 22.619C12 22.0405 12.4477 21.5714 13 21.5714H25C25.5523 21.5714 26 22.0405 26 22.619C26 23.1976 25.5523 23.6667 25 23.6667H13C12.4477 23.6667 12 23.1976 12 22.619Z" />
</svg>
