<svg width="36" height="36" viewBox="0 0 36 36" fill="none" xmlns="http://www.w3.org/2000/svg">
<path fill-rule="evenodd" clip-rule="evenodd" d="M24.2785 10.0101C23.2229 9.00602 21.5114 9.00602 20.4559 10.0101L10.7082 19.2819C8.91376 20.9888 8.91376 23.7563 10.7082 25.4632C12.5027 27.1701 15.4122 27.1701 17.2067 25.4632L26.9543 16.1913C27.3765 15.7897 28.0611 15.7897 28.4833 16.1913C28.9056 16.5929 28.9056 17.2441 28.4833 17.6457L18.7357 26.9176C16.0967 29.4277 11.8182 29.4277 9.17921 26.9176C6.54026 24.4074 6.54026 20.3377 9.17921 17.8275L18.9268 8.55568C20.8269 6.74837 23.9075 6.74837 25.8075 8.55568C27.7076 10.363 27.7076 13.2932 25.8075 15.1005L16.4421 24.0088C15.281 25.1132 13.3984 25.1132 12.2373 24.0088C11.0761 22.9043 11.0761 21.1136 12.2373 20.0091L20.4559 12.1917C20.8781 11.7901 21.5627 11.7901 21.9849 12.1917C22.4071 12.5933 22.4071 13.2445 21.9849 13.6461L13.7663 21.4636C13.4497 21.7648 13.4497 22.2531 13.7663 22.5544C14.083 22.8556 14.5964 22.8556 14.9131 22.5544L24.2785 13.6461C25.334 12.642 25.334 11.0141 24.2785 10.0101Z" fill="#0071FF"/>
</svg>
