<svg viewBox="0 0 40 40" fill="none" xmlns="http://www.w3.org/2000/svg">
<path d="M26.9268 12.0625C24.9512 10.0937 22.3171 9 19.5366 9C13.7561 9 9.07317 13.6667 9.07317 19.4271C9.07317 21.25 9.58537 23.0729 10.4634 24.6042L9 30L14.561 28.5417C16.0976 29.3438 17.7805 29.7812 19.5366 29.7812C25.3171 29.7812 30 25.1146 30 19.3542C29.9268 16.6563 28.9024 14.0312 26.9268 12.0625ZM24.5854 23.1458C24.3659 23.7292 23.3415 24.3125 22.8293 24.3854C22.3902 24.4583 21.8049 24.4583 21.2195 24.3125C20.8537 24.1667 20.3415 24.0208 19.7561 23.7292C17.122 22.6354 15.439 20.0104 15.2927 19.7917C15.1463 19.6458 14.1951 18.4062 14.1951 17.0937C14.1951 15.7812 14.8537 15.1979 15.0732 14.9062C15.2927 14.6146 15.5854 14.6146 15.8049 14.6146C15.9512 14.6146 16.1707 14.6146 16.3171 14.6146C16.4634 14.6146 16.6829 14.5417 16.9024 15.0521C17.122 15.5625 17.6341 16.875 17.7073 16.9479C17.7805 17.0938 17.7805 17.2396 17.7073 17.3854C17.6341 17.5312 17.561 17.6771 17.4146 17.8229C17.2683 17.9687 17.1219 18.1875 17.0488 18.2604C16.9024 18.4062 16.7561 18.5521 16.9024 18.7708C17.0488 19.0625 17.561 19.8646 18.3659 20.5937C19.3902 21.4687 20.1951 21.7604 20.4878 21.9063C20.7805 22.0521 20.9268 21.9792 21.0732 21.8333C21.2195 21.6875 21.7317 21.1042 21.878 20.8125C22.0244 20.5208 22.2439 20.5938 22.4634 20.6667C22.6829 20.7396 24 21.3958 24.2195 21.5417C24.5122 21.6875 24.6585 21.7604 24.7317 21.8333C24.8049 22.0521 24.8049 22.5625 24.5854 23.1458Z" fill="#A2A5BE"/>
</svg>
